Coordinates
version=1
nRows=24
nColumns=24
inDegrees=yes

Units are S.I. units (second, meters, Newtons, ...)
If the header above contains a line with 'inDegrees', this indicates whether rotational values are in degrees (yes) or radians (no).

endheader
time	pelvis_tilt	pelvis_list	pelvis_rotation	pelvis_tx	pelvis_ty	pelvis_tz	hip_flexion_r	hip_adduction_r	hip_rotation_r	knee_angle_r	ankle_angle_r	subtalar_angle_r	mtp_angle_r	hip_flexion_l	hip_adduction_l	hip_rotation_l	knee_angle_l	ankle_angle_l	subtalar_angle_l	mtp_angle_l	lumbar_extension	lumbar_bending	lumbar_rotation
      1.81000000	     11.27338197	      1.34689793	   -181.16120694	      0.26757053	      0.79859722	     -1.21214344	     36.80371528	    -17.01623098	    -23.11844418	    -44.89104675	     13.40147699	      9.00535947	      0.00000000	     37.03575274	    -21.05168224	    -18.93396487	    -44.99559157	     13.39149580	     13.12638209	      0.00000000	     -2.55847270	      2.58320897	      0.82652664
      1.81500000	     11.36644609	      1.25903771	   -181.11678932	      0.26699026	      0.80081813	     -1.21210395	     36.43510580	    -16.94242821	    -23.24065606	    -44.03025029	     12.96390400	      8.96583904	      0.00000000	     36.62437471	    -20.73535283	    -19.01596027	    -44.07970126	     12.98158890	     13.02341343	      0.00000000	     -2.39724536	      2.54061388	      0.55271040
      1.82000000	     11.34527519	      1.20200224	   -180.87881011	      0.26633082	      0.80304517	     -1.21268820	     35.88379199	    -16.88561439	    -23.52704620	    -43.21986043	     12.67903522	      8.89320830	      0.00000000	     36.17789379	    -20.42794051	    -18.96862712	    -43.16919709	     12.49778260	     13.01194641	      0.00000000	     -2.35535290	      2.33691351	      0.22101506
      1.82500000	     11.40857809	      1.23686060	   -180.92095329	      0.26568896	      0.80522287	     -1.21273621	     35.46860744	    -16.64366319	    -23.65934303	    -42.32742295	     12.28329090	      8.91180836	      0.00000000	     35.75047161	    -20.29909927	    -19.08268320	    -42.31548995	     12.11168322	     12.90494765	      0.00000000	     -2.19484244	      2.31089757	      0.38663512
      1.83000000	     11.55718394	      1.29263539	   -181.24679124	      0.26509842	      0.80735517	     -1.21215813	     35.22334776	    -16.30280672	    -23.61355234	    -41.39546766	     11.70692346	      9.03015621	      0.00000000	     35.32396879	    -20.27711816	    -19.40813555	    -41.49668784	     11.80447080	     12.71819533	      0.00000000	     -1.95871448	      2.49865321	      0.75563294
      1.83500000	     11.46313031	      1.29507230	   -180.99560131	      0.26435163	      0.80957265	     -1.21300384	     34.57076463	    -16.15373441	    -23.90215070	    -40.56919251	     11.45629333	      8.81269685	      0.00000000	     34.81062185	    -20.04589719	    -19.33369054	    -40.59138727	     11.30762233	     12.71606934	      0.00000000	     -1.96420536	      2.29269299	      0.49924227
      1.84000000	     11.66391376	      1.28480238	   -181.27080999	      0.26374058	      0.81154471	     -1.21244539	     34.36540344	    -15.87111794	    -23.79526885	    -39.60008977	     10.89629627	      8.86565999	      0.00000000	     34.44817689	    -19.93869790	    -19.63333785	    -39.79578134	     10.99665089	     12.53566396	      0.00000000	     -1.69204861	      2.49823600	      0.55722600
      1.84500000	     11.62512282	      1.31029221	   -181.05694680	      0.26290855	      0.81361434	     -1.21293341	     33.76329432	    -15.72874947	    -24.12934162	    -38.75154066	     10.58796323	      8.79914649	      0.00000000	     33.99266551	    -19.72251472	    -19.56736804	    -38.90767179	     10.52770833	     12.50290686	      0.00000000	     -1.47011499	      1.87455695	      1.61891989
      1.85000000	     11.77875915	      1.27881993	   -181.32605530	      0.26235746	      0.81537393	     -1.21243854	     33.56440050	    -15.49602046	    -24.03910501	    -37.88981475	     10.09043968	      8.85461218	      0.00000000	     33.60287219	    -19.59890514	    -19.89363407	    -38.11549392	     10.19629472	     12.29700740	      0.00000000	     -1.39985109	      2.44873686	      0.62824863
      1.85500000	     11.69744445	      1.33637985	   -181.09951842	      0.26163893	      0.81737570	     -1.21311228	     32.94650203	    -15.31171102	    -24.37523399	    -37.09785124	      9.84054651	      8.73290729	      0.00000000	     33.13882224	    -19.43073697	    -19.80049371	    -37.25946091	      9.72397208	     12.20580738	      0.00000000	     -1.24589685	      2.11163462	      1.04636562
      1.86000000	     11.91213349	      1.33438433	   -181.39681462	      0.26084636	      0.81922459	     -1.21231949	     32.76092174	    -15.05348079	    -24.28232410	    -36.16226642	      9.30439798	      8.82552546	      0.00000000	     32.77101754	    -19.28861878	    -20.08833738	    -36.41998815	      9.39714050	     11.86128966	      0.00000000	     -0.92364285	      1.98882307	      1.99634241
      1.86500000	     11.81057260	      1.36446676	   -181.13479999	      0.26007711	      0.82097976	     -1.21293142	     32.10774375	    -14.92891616	    -24.66644639	    -35.36775868	      9.05370802	      8.75106469	      0.00000000	     32.31375179	    -19.09588091	    -20.00951866	    -35.61742676	      8.97423580	     11.84628665	      0.00000000	     -0.93884676	      1.83565590	      1.73851754
      1.87000000	     11.91066283	      1.37276917	   -181.40222016	      0.25929693	      0.82268333	     -1.21248435	     31.79915517	    -14.65101584	    -24.57713475	    -34.45541216	      8.56569746	      8.85624023	      0.00000000	     31.85721381	    -19.01844078	    -20.34380045	    -34.83015636	      8.71427309	     11.66706456	      0.00000000	     -0.72030211	      2.02353664	      1.86602121
      1.87500000	     11.94425459	      1.31413358	   -181.33516885	      0.25885846	      0.82409837	     -1.21253444	     31.44625965	    -14.57809465	    -24.71881317	    -33.74857229	      8.24828802	      8.81338039	      0.00000000	     31.50475642	    -18.78516514	    -20.42345730	    -34.08535208	      8.35833829	     11.57357732	      0.00000000	     -0.58652668	      2.18754714	      1.19403383
      1.88000000	     11.88175808	      1.35939396	   -181.10719154	      0.25806917	      0.82571614	     -1.21313101	     30.87147553	    -14.42739338	    -25.08455515	    -33.00227569	      8.02204375	      8.77096951	      0.00000000	     31.09551966	    -18.64400613	    -20.38143765	    -33.32846204	      7.91100800	     11.58427342	      0.00000000	     -0.53960215	      2.08953617	      0.94459380
      1.88500000	     11.90492718	      1.40159161	   -181.11998127	      0.25729806	      0.82720158	     -1.21306015	     30.45848355	    -14.23400293	    -25.28095349	    -32.22946378	      7.69084515	      8.81838062	      0.00000000	     30.68946934	    -18.53520998	    -20.51925672	    -32.57683775	      7.55042093	     11.42222968	      0.00000000	     -0.40726895	      2.13833102	      0.93723017
      1.89000000	     12.04536312	      1.44264971	   -181.39783758	      0.25662524	      0.82855412	     -1.21245587	     30.26000844	    -13.97683415	    -25.25166878	    -31.44560431	      7.20935974	      8.95768248	      0.00000000	     30.32315482	    -18.48914492	    -20.83309806	    -31.85516743	      7.31426481	     11.23167045	      0.00000000	     -0.17030350	      2.33027371	      1.21210940
      1.89500000	     12.01525379	      1.41819961	   -181.14031669	      0.25580916	      0.82986961	     -1.21283519	     29.73970358	    -13.91883979	    -25.57387849	    -30.72091316	      7.00058602	      8.84938664	      0.00000000	     29.95340811	    -18.25888303	    -20.81460165	    -31.10909352	      6.91502179	     11.27150157	      0.00000000	     -0.08503840	      2.20128039	      0.81983331
      1.90000000	     12.07346676	      1.45008722	   -181.30089671	      0.25517114	      0.83116740	     -1.21250844	     29.41989637	    -13.68310378	    -25.59009438	    -29.92382157	      6.56007395	      8.95970960	      0.00000000	     29.56128877	    -18.19140803	    -21.08521688	    -30.42233854	      6.69935877	     11.12778571	      0.00000000	      0.04338275	      2.24995398	      1.10692556
      1.90500000	     12.02274735	      1.47925173	   -181.30507029	      0.25433143	      0.83246251	     -1.21234102	     28.95372945	    -13.50379091	    -25.70564001	    -29.18807861	      6.27002656	      8.92793867	      0.00000000	     29.06242483	    -18.03895559	    -21.19091693	    -29.60362954	      6.40955292	     10.94830998	      0.00000000	      0.10857713	      2.27508097	      1.15092651
      1.91000000	     12.05782580	      1.48464725	   -181.07051702	      0.25367762	      0.83359035	     -1.21276572	     28.54952483	    -13.41043794	    -26.04717398	    -28.52393719	      6.06096284	      8.84997639	      0.00000000	     28.82483597	    -17.89173386	    -21.18920170	    -29.03720846	      6.03988842	     11.04470630	      0.00000000	      0.24800996	      2.21546442	      0.71315145
      1.91500000	     12.15199956	      1.48815553	   -181.25963311	      0.25319306	      0.83469212	     -1.21226646	     28.35480825	    -13.23308311	    -26.04229583	    -27.86202904	      5.67649552	      8.94442962	      0.00000000	     28.48243950	    -17.78952660	    -21.47262215	    -28.36618044	      5.81027440	     10.85213356	      0.00000000	      0.43267623	      2.38587968	      0.79651834
      1.92000000	     12.08559283	      1.56498594	   -181.27790604	      0.25234775	      0.83577537	     -1.21220696	     27.87932236	    -13.00396354	    -26.17568633	    -27.16041637	      5.42192613	      8.93220593	      0.00000000	     28.00618295	    -17.72542127	    -21.62715054	    -27.60564824	      5.54184691	     10.69997953	      0.00000000	      0.44834011	      2.38701938	      0.98519185
      1.92500000	     12.05807510	      1.57031483	   -180.97759613	      0.25175368	      0.83667290	     -1.21274046	     27.41544511	    -12.93234400	    -26.55869611	    -26.54108430	      5.26035382	      8.83275326	      0.00000000	     27.74726504	    -17.56577639	    -21.59562785	    -27.01364040	      5.17698811	     10.79729301	      0.00000000	      0.48676755	      2.24594727	      0.57554676
